<mxfile host="app.diagrams.net" agent="Mozilla/5.0 (Windows NT 10.0; Win64; x64) AppleWebKit/537.36 (KHTML, like Gecko) Chrome/136.0.0.0 Safari/537.36" version="27.0.6">
  <diagram name="Página-1" id="xxBtGWMwJfMDal8kSAKF">
    <mxGraphModel dx="586" dy="662" grid="1" gridSize="10" guides="1" tooltips="1" connect="1" arrows="1" fold="1" page="1" pageScale="1" pageWidth="827" pageHeight="1169" math="0" shadow="0">
      <root>
        <mxCell id="0" />
        <mxCell id="1" parent="0" />
        <mxCell id="2MBq89r9YiOxbRe3hVOZ-3" value="ARTÍCULOS" style="swimlane;fontStyle=0;childLayout=stackLayout;horizontal=1;startSize=30;horizontalStack=0;resizeParent=1;resizeParentMax=0;resizeLast=0;collapsible=1;marginBottom=0;whiteSpace=wrap;html=1;" parent="1" vertex="1">
          <mxGeometry x="95" y="130" width="465" height="90" as="geometry" />
        </mxCell>
        <mxCell id="2MBq89r9YiOxbRe3hVOZ-4" value="- ID : int&lt;div&gt;- Título : String&lt;/div&gt;&lt;div&gt;- Estado : boolean&lt;/div&gt;" style="text;strokeColor=none;fillColor=none;align=left;verticalAlign=middle;spacingLeft=4;spacingRight=4;overflow=hidden;points=[[0,0.5],[1,0.5]];portConstraint=eastwest;rotatable=0;whiteSpace=wrap;html=1;" parent="2MBq89r9YiOxbRe3hVOZ-3" vertex="1">
          <mxGeometry y="30" width="465" height="60" as="geometry" />
        </mxCell>
        <mxCell id="2MBq89r9YiOxbRe3hVOZ-8" value="LIBROS" style="swimlane;fontStyle=0;childLayout=stackLayout;horizontal=1;startSize=30;horizontalStack=0;resizeParent=1;resizeParentMax=0;resizeLast=0;collapsible=1;marginBottom=0;whiteSpace=wrap;html=1;" parent="1" vertex="1">
          <mxGeometry x="95" y="310" width="240" height="60" as="geometry" />
        </mxCell>
        <mxCell id="2MBq89r9YiOxbRe3hVOZ-9" value="- Autor : String" style="text;strokeColor=none;fillColor=none;align=left;verticalAlign=middle;spacingLeft=4;spacingRight=4;overflow=hidden;points=[[0,0.5],[1,0.5]];portConstraint=eastwest;rotatable=0;whiteSpace=wrap;html=1;" parent="2MBq89r9YiOxbRe3hVOZ-8" vertex="1">
          <mxGeometry y="30" width="240" height="30" as="geometry" />
        </mxCell>
        <mxCell id="2MBq89r9YiOxbRe3hVOZ-10" value="REVISTAS" style="swimlane;fontStyle=0;childLayout=stackLayout;horizontal=1;startSize=30;horizontalStack=0;resizeParent=1;resizeParentMax=0;resizeLast=0;collapsible=1;marginBottom=0;whiteSpace=wrap;html=1;" parent="1" vertex="1">
          <mxGeometry x="385" y="310" width="170" height="60" as="geometry" />
        </mxCell>
        <mxCell id="2MBq89r9YiOxbRe3hVOZ-11" value="- Edición : int" style="text;strokeColor=none;fillColor=none;align=left;verticalAlign=middle;spacingLeft=4;spacingRight=4;overflow=hidden;points=[[0,0.5],[1,0.5]];portConstraint=eastwest;rotatable=0;whiteSpace=wrap;html=1;" parent="2MBq89r9YiOxbRe3hVOZ-10" vertex="1">
          <mxGeometry y="30" width="170" height="30" as="geometry" />
        </mxCell>
        <mxCell id="-fvk-ToCkU2CGiV3Ij_z-3" value="&lt;div style=&quot;color: rgb(51, 51, 51);&quot;&gt;&lt;span style=&quot;background-color: transparent; color: light-dark(rgb(0, 0, 0), rgb(255, 255, 255)); text-align: center;&quot;&gt;mostrarLibros() -- mostrar Array de libros&lt;/span&gt;&lt;/div&gt;" style="text;strokeColor=#666666;fillColor=#f5f5f5;align=left;verticalAlign=middle;spacingLeft=4;spacingRight=4;overflow=hidden;points=[[0,0.5],[1,0.5]];portConstraint=eastwest;rotatable=0;whiteSpace=wrap;html=1;fontColor=#333333;" vertex="1" parent="1">
          <mxGeometry x="95" y="370" width="240" height="70" as="geometry" />
        </mxCell>
        <mxCell id="-fvk-ToCkU2CGiV3Ij_z-8" value="Préstamo" style="swimlane;fontStyle=0;childLayout=stackLayout;horizontal=1;startSize=30;horizontalStack=0;resizeParent=1;resizeParentMax=0;resizeLast=0;collapsible=1;marginBottom=0;whiteSpace=wrap;html=1;" vertex="1" parent="1">
          <mxGeometry x="95" y="460" width="240" height="60" as="geometry" />
        </mxCell>
        <mxCell id="-fvk-ToCkU2CGiV3Ij_z-9" value="Estado : disponibilidad" style="text;strokeColor=none;fillColor=none;align=left;verticalAlign=middle;spacingLeft=4;spacingRight=4;overflow=hidden;points=[[0,0.5],[1,0.5]];portConstraint=eastwest;rotatable=0;whiteSpace=wrap;html=1;" vertex="1" parent="-fvk-ToCkU2CGiV3Ij_z-8">
          <mxGeometry y="30" width="240" height="30" as="geometry" />
        </mxCell>
        <mxCell id="-fvk-ToCkU2CGiV3Ij_z-10" value="&lt;div style=&quot;color: rgb(0, 0, 0); text-align: center;&quot;&gt;prestarArticulo()&lt;/div&gt;&lt;div style=&quot;color: rgb(0, 0, 0); text-align: center;&quot;&gt;devolverArticulo()&lt;br&gt;&lt;/div&gt;" style="text;strokeColor=#666666;fillColor=#f5f5f5;align=left;verticalAlign=middle;spacingLeft=4;spacingRight=4;overflow=hidden;points=[[0,0.5],[1,0.5]];portConstraint=eastwest;rotatable=0;whiteSpace=wrap;html=1;fontColor=#333333;" vertex="1" parent="1">
          <mxGeometry x="95" y="520" width="240" height="50" as="geometry" />
        </mxCell>
        <mxCell id="-fvk-ToCkU2CGiV3Ij_z-13" style="edgeStyle=none;curved=1;rounded=0;orthogonalLoop=1;jettySize=auto;html=1;exitX=1;exitY=0.5;exitDx=0;exitDy=0;fontSize=12;startSize=8;endSize=8;" edge="1" parent="1">
          <mxGeometry relative="1" as="geometry">
            <mxPoint x="590" y="375" as="sourcePoint" />
            <mxPoint x="590" y="375" as="targetPoint" />
          </mxGeometry>
        </mxCell>
        <mxCell id="-fvk-ToCkU2CGiV3Ij_z-14" value="&lt;div style=&quot;color: rgb(51, 51, 51);&quot;&gt;&lt;span style=&quot;background-color: transparent; color: light-dark(rgb(0, 0, 0), rgb(255, 255, 255)); text-align: center;&quot;&gt;mostrar&lt;/span&gt;&lt;span style=&quot;color: light-dark(rgb(51, 51, 51), rgb(193, 193, 193)); background-color: transparent;&quot;&gt;Revista&lt;/span&gt;&lt;span style=&quot;background-color: transparent; color: light-dark(rgb(0, 0, 0), rgb(255, 255, 255)); text-align: center;&quot;&gt;()&lt;/span&gt;&lt;/div&gt;&lt;div style=&quot;color: rgb(51, 51, 51);&quot;&gt;&lt;br&gt;&lt;/div&gt;" style="text;strokeColor=#666666;fillColor=#f5f5f5;align=left;verticalAlign=middle;spacingLeft=4;spacingRight=4;overflow=hidden;points=[[0,0.5],[1,0.5]];portConstraint=eastwest;rotatable=0;whiteSpace=wrap;html=1;fontColor=#333333;" vertex="1" parent="1">
          <mxGeometry x="385" y="370" width="170" height="70" as="geometry" />
        </mxCell>
        <mxCell id="-fvk-ToCkU2CGiV3Ij_z-17" value="agregarArticulo --&amp;gt; Constructor&lt;div&gt;buscarArticuloID&amp;nbsp;&lt;br&gt;&lt;div&gt;&lt;br&gt;&lt;/div&gt;&lt;/div&gt;" style="text;strokeColor=#666666;fillColor=#f5f5f5;align=left;verticalAlign=middle;spacingLeft=4;spacingRight=4;overflow=hidden;points=[[0,0.5],[1,0.5]];portConstraint=eastwest;rotatable=0;whiteSpace=wrap;html=1;fontColor=#333333;" vertex="1" parent="1">
          <mxGeometry x="95" y="220" width="465" height="60" as="geometry" />
        </mxCell>
        <mxCell id="-fvk-ToCkU2CGiV3Ij_z-21" value="&lt;b&gt;Main:&lt;/b&gt;&lt;div&gt;Menu:&lt;/div&gt;&lt;div&gt;- Agregar Artículo&lt;/div&gt;&lt;div&gt;- Buscar Artículo&lt;/div&gt;&lt;div&gt;- Mostrar los artículos&lt;/div&gt;&lt;div&gt;- Gestionar Prestamos --&amp;gt; Péstamos / Devolución&lt;/div&gt;" style="rounded=0;whiteSpace=wrap;html=1;align=left;fillColor=#e1d5e7;strokeColor=#9673a6;" vertex="1" parent="1">
          <mxGeometry x="95" y="610" width="315" height="120" as="geometry" />
        </mxCell>
      </root>
    </mxGraphModel>
  </diagram>
</mxfile>
